<svg width="622" height="237" viewBox="0 0 622 237" fill="none" xmlns="http://www.w3.org/2000/svg">
<path d="M0 71.4972V19.5413L490.142 42.602L624 0V15.1885L563.873 44.7321L423.081 84L0 71.4972Z" fill="#01BE5E"/>
<path d="M1 82.7318V72.2294L424.057 84.7765C469.962 71.238 562.385 44.1612 564.842 44.1612L624 16V31.4282L568.09 56.9871L424.057 95L1 82.7318Z" fill="#D0D0D0"/>
<path d="M3.63598 121.283H1V83H8.99582H43L31.6653 93.8853V210.026L28.0628 227H1V218.144L3.63598 216.668V121.283Z" fill="#CFCFCF"/>
<path d="M481.535 106L32 94.0196L43.1506 83.2373L424.729 94.1118L558.975 59L625 65.2667L481.535 100.563V106Z" fill="#B7B7B7"/>
<path d="M568.694 56.5687L559 58.8598L624 65V31L568.694 56.5687Z" fill="#FFF5E9"/>
<path d="M481.405 105.938L32 94.0117V208L482.634 204.949L625 197.646V66L481.405 100.576V105.938Z" fill="white"/>
<path d="M72.325 205.81V133.237H39.458V205.81H72.325Z" fill="#009549"/>
<path d="M69.864 170.724V167.769H71.0065L71.358 174.509H69.864V170.724Z" fill="#E2D900"/>
<rect x="55.8037" y="137.853" width="13.0062" height="23.4526" fill="#007A3C"/>
<rect x="40.5127" y="137.853" width="13.0062" height="23.4526" fill="#007A3C"/>
<rect x="55.8037" y="178.849" width="13.0062" height="23.4526" fill="#007A3C"/>
<rect x="40.5127" y="162.968" width="28.2972" height="13.8499" fill="#007A3C"/>
<rect x="40.5127" y="178.849" width="13.0062" height="23.4526" fill="#007A3C"/>
<path d="M322.255 202V132.867H290.442V202H322.255Z" fill="#009549"/>
<path d="M319.873 166.161V163.537H320.979L321.319 169.523H319.873V166.161Z" fill="#E2D900"/>
<rect x="306.261" y="137.026" width="11.7759" height="20.7918" fill="#007A3C"/>
<path d="M292.552 136.967H304.052V157.796H292.552V136.967Z" fill="#007A3C"/>
<rect x="306.261" y="174.278" width="11.7759" height="19.9255" fill="#007A3C"/>
<rect x="292.552" y="160.59" width="25.4851" height="10.9157" fill="#007A3C"/>
<rect x="292.552" y="174.278" width="11.4244" height="19.9255" fill="#007A3C"/>
<path d="M74 122V106H38V122H74Z" fill="#2D2D2D"/>
<path d="M322 130V113H290V130H322Z" fill="#2D2D2D"/>
<path d="M150 108.705V125L128.119 124.655L106.237 124.309L84 123.958V107L106.237 107.575L128.119 108.14L150 108.705Z" fill="#2D2D2D"/>
<path d="M254 110.705V127L232.119 126.655L210.237 126.309L188 125.958V109L210.237 109.575L232.119 110.14L254 110.705Z" fill="#2D2D2D"/>
<path d="M486 118.516V133L465.776 132.693L445.553 132.386L425 132.074V117L445.553 117.511L465.776 118.013L486 118.516Z" fill="#2D2D2D"/>
<path d="M406 116.421V130L384.119 129.712L362.237 129.424L340 129.132V115L362.237 115.479L384.119 115.95L406 116.421Z" fill="#2D2D2D"/>
<path d="M424.195 175.71V138.592L489.929 139.33V176.171L424.195 175.71Z" fill="#3E3E3E"/>
<path d="M468.486 172.755V141.731L484.832 141.916V173.124L468.486 172.755Z" fill="#56685F"/>
<path d="M447.923 174.017V140.438L465.675 140.638V174.417L447.923 174.017Z" fill="#56685F"/>
<path d="M428.765 172.755V141.731L445.11 141.916V173.124L428.765 172.755Z" fill="#56685F"/>
<path d="M340.357 174.048V136.93L406.091 137.668V174.509L340.357 174.048Z" fill="#3E3E3E"/>
<path d="M384.648 171.093V140.069L400.994 140.254V171.462L384.648 171.093Z" fill="#56685F"/>
<path d="M364.085 172.355V138.776L381.837 138.976V172.755L364.085 172.355Z" fill="#56685F"/>
<path d="M344.927 171.093V140.069L361.272 140.254V171.462L344.927 171.093Z" fill="#56685F"/>
<path d="M481.529 205L481 100.601L625 65V197.417L481.529 205Z" fill="#EAEAEA"/>
<path d="M531 158.286V130L522 131.81V160L531 158.286Z" stroke="black"/>
<path d="M531 158.286V130L522 131.81V160L531 158.286Z" stroke="black"/>
<path d="M532.287 125.48V159.274L502.76 164.168L502.936 131.944L532.287 125.48Z" fill="#3E3E3E"/>
<path d="M530.179 157.52V130.097L521.039 131.851V159.182L530.179 157.52Z" fill="#56685F"/>
<path d="M513.13 160.29V132.867L503.99 134.622V161.952L513.13 160.29Z" fill="#56685F"/>
<path d="M592.045 115.508V149.302L562.518 154.196L562.693 121.972L592.045 115.508Z" fill="#3E3E3E"/>
<path d="M589.936 147.548V120.125L580.797 121.879V149.21L589.936 147.548Z" fill="#56685F"/>
<path d="M572.888 150.318V122.895L563.748 124.649V151.98L572.888 150.318Z" fill="#56685F"/>
<path d="M587 64.4662V200H578.425H571V64.4662L576.215 63L587 64.4662Z" fill="#009B4C"/>
<path d="M509 80V202.816L502.686 203H496V81.6572L500.921 80H509Z" fill="#009B4C"/>
<path d="M435 98.0085L438.153 97H446.212L447 205H438.153H435.613L435 98.0085Z" fill="#009B4C"/>
<path d="M170.498 93.6118L172.161 92.136H181V207.524H173.736H170.236L170.498 93.6118Z" fill="#009B4C"/>
<path d="M38 91.1214L40.1004 89H47.8017V208.447H39.7503L38.3501 209L38 91.1214Z" fill="#009B4C"/>
<path d="M424 83L490.355 42.2361L625 0V15.2749L565.774 43.4324L424 83Z" fill="#02A753"/>
<path d="M1.3299 121L9 82H1L1.3299 121Z" fill="#FFEDD9"/>
<path d="M84.2764 170.724V133.606L150.01 134.345V171.185L84.2764 170.724Z" fill="#3E3E3E"/>
<path d="M128.567 167.769V136.745L144.913 136.93V168.139L128.567 167.769Z" fill="#56685F"/>
<path d="M108.004 169.031V135.453L125.756 135.653V169.431L108.004 169.031Z" fill="#56685F"/>
<path d="M88.8457 167.769V136.745L105.191 136.93V168.139L88.8457 167.769Z" fill="#56685F"/>
<path d="M187.975 170.724V133.606L253.709 134.345V171.185L187.975 170.724Z" fill="#3E3E3E"/>
<path d="M232.266 167.769V136.745L248.611 136.93V168.139L232.266 167.769Z" fill="#56685F"/>
<path d="M211.702 169.031V135.453L229.454 135.653V169.431L211.702 169.031Z" fill="#56685F"/>
<path d="M192.544 167.769V136.745L208.89 136.93V168.139L192.544 167.769Z" fill="#56685F"/>
<path d="M38.5 227.735L28 227.251L31.4234 210.03L38.5 208.5V227.735Z" fill="#171717"/>
<path d="M447 205V221.522L39.9305 228L38 227.718L38.4387 208.567L39.9305 208.098L447 205Z" fill="#2D2D2D"/>
<path d="M578 223L447 220.943V204.394L578 200V223Z" fill="#171717"/>
<path d="M624 218.683L578 223V200.788L624 198V218.683Z" fill="#2D2D2D"/>
</svg>
